<?xml version="1.0" encoding="UTF-8"?>
<svg xmlns="http://www.w3.org/2000/svg" width="109.51199340820318" height="77.00000000000017" viewBox="25.244003295898203 41.5 109.51199340820318 77.00000000000017" preserveAspectRatio="none">
  <g>
    <text x="25.244003295898203" y="79.29999732971208" font-family="Bakbak One" font-weight="400" font-style="normal" font-size="36.0" fill="#000000" id="s-Paragraph_1-d1224">
      <tspan font-family="Bakbak One" font-weight="400" font-style="normal" font-size="36.0" fill="#000000" dy="0.0" x="25.244003295898203">Switch</tspan>
    </text>
  </g>
  <g>
    <text x="74.8159980773924" y="106.2999973297121" font-family="Bakbak One" font-weight="400" font-style="normal" font-size="36.0" fill="#000000" id="s-Paragraph_2-d1224">
      <tspan font-family="Bakbak One" font-weight="400" font-style="normal" font-size="36.0" fill="#000000" dy="0.0" x="74.8159980773924">ode</tspan>
    </text>
  </g>
  <g>
    <defs>
      <path id="s-Path_3-d1224" d="M87.88032750549823 79.75632640230647 C86.0839847205047 81.01555240988748 84.43366851766282 82.17646814257532 82.40700645850293 83.60212862987393 C82.40700645850293 81.06920756215706 82.40700645850293 78.97126468092335 82.40700645850293 76.72407803728322 C77.08218590066639 76.72407803728322 72.00401093504894 76.70535672765462 66.92619934746367 76.73983726537662 C65.90789664571591 76.74675062420134 64.87114241499981 76.86701774140377 63.87699701142296 77.08825256476513 C60.391032633104665 77.86401511196061 58.87886248074644 80.24938267569355 58.49047009208826 83.65106353821008 C57.97921371796725 88.12880952765337 57.72218799367683 92.54652840256546 61.1351684448007 96.12071105679178 C61.76019334212405 96.77525766636742 62.930411919484705 97.0845694519576 63.89178172570275 97.20162856511818 C65.34808158798906 97.37895704483141 66.84192867836002 97.24796109946618 68.67152238854237 97.24796109946618 C68.67152238854237 95.29544284081561 68.67152238854237 93.20832054987406 68.67152238854237 90.62656000643555 C73.34163116497045 94.20834790594182 77.54746761274384 97.43405469777426 82.0732529121409 100.90515177589636 C77.68311039233902 104.21209374559378 73.53222110761635 107.33881122277589 68.85596059803709 110.86127307041919 C68.85596059803709 107.9741942292595 68.85596059803709 105.85951026514842 68.85596059803709 103.74922721276062 C66.0471842170886 103.47866840963468 63.41451404429046 103.48741517580369 60.907869979932336 102.92972165850723 C55.46870463272118 101.71958471963968 52.926823910695234 97.78431808644774 51.97849533829946 92.58793147532515 C51.20183352223641 88.33220212258523 51.38533942849702 84.12633631093044 52.42207530678724 79.91213115696094 C53.680110241929384 74.79838919001004 57.564861822917855 71.02694181584943 62.81267560180957 70.80967295171826 C69.17008806017522 70.5464642951527 75.54671183794015 70.74723432842794 82.21208901383721 70.74723432842794 C82.21208901383721 67.90952351285493 82.21208901383721 65.65661825331412 82.21208901383721 63.0 C86.97750560828635 66.58690639108103 91.35238625073586 69.87985647129618 95.99875799954543 73.37715897831613 C93.19107909366389 75.58911997574398 90.60871659065688 77.62357080444252 87.88032750549823 79.75632640230647 Z "></path>
    </defs>
    <g style="mix-blend-mode:normal">
      <use xmlns:xlink="http://www.w3.org/1999/xlink" xlink:href="#s-Path_3-d1224" fill="#20C997" fill-opacity="1.0"></use>
    </g>
  </g>
  <g>
    <text x="73.74937899977266" y="79.29999732971191" font-family="Bakbak One" font-weight="400" font-style="normal" font-size="36.0" fill="#000000" id="s-Paragraph_4-d1224">
      <tspan font-family="Bakbak One" font-weight="400" font-style="normal" font-size="36.0" fill="#000000" dy="0.0" x="73.74937899977266">i</tspan>
    </text>
  </g>
  <g>
    <defs>
      <path id="s-Path_1-d1224" d="M62.906009375974804 61.43000000000001 C57.43400925390449 63.229999237060554 60.014009177610546 71.1499993133545 60.35000962011543 69.4939991760254 L60.42201012365547 69.4939991760254 C60.63627327529747 70.55001511484107 60.86273657804308 71.5913917642981 61.1013997845887 72.61812887709287 C61.23699826130725 73.2014780681998 61.37653491369961 73.7801015608009 61.520009696409375 74.3539993095398 C61.916008651182324 75.93799918174744 62.30600899450508 77.4739990758896 62.69000977270332 78.96199899196625 L68.91801041357246 78.96199899196625 L73.38200920812812 61.43000000000001 L67.33400887243477 61.43000000000001 C66.99800842992988 63.229999237060554 66.662007987425 65.10199993133546 66.32600945226875 67.04599922180176 C65.99000900976387 68.98999946594239 65.69000786535469 70.89800041198731 65.42600983373848 72.76999919891358 L65.35400933019844 72.76999919891358 C64.99400871984687 70.89800041198731 64.60400933019844 68.98999946594239 64.18400925390449 67.04599922180176 C63.764009177610546 65.10199993133546 63.338010489866406 63.229999237060554 62.906009375974804 61.43000000000001 Z "></path>
    </defs>
    <g style="mix-blend-mode:normal">
      <use xmlns:xlink="http://www.w3.org/1999/xlink" xlink:href="#s-Path_1-d1224" fill="#000000" fill-opacity="1.0"></use>
    </g>
  </g>
</svg>
